# xmcd
#
# Track frame offsets:
#	150
#	18045
#	34915
#	51555
#	64380
#	82642
#	94597
#	112029
#	126357
#	137017
#	152772
#	173295
#	189297
#	205652
#
# Disc length: 2906 seconds
#
# Revision: 2
# Processed by: cddbd v1.5.1PL0 Copyright (c) Steve Scherf et al.
# Submitted via: EasyCDDAExtractor 7.5.0.1
#
DISCID=af0b580e
DTITLE=Various Artist - Caminhos dos Pampas
DYEAR=1900
DGENRE=
TTITLE0=Os Serranos - Carreta
TTITLE1=Os Monarcas - Rancho sem Tramela
TTITLE2=Os Filhos do Rio Grande - Xote do Caminhoneiro
TTITLE3=Berenice Azambuja - Estação de Trem
TTITLE4=Garotos de Ouro - Peão Farrapo
TTITLE5=Moraezinho - Amigo do Peito
TTITLE6=Cenair Maicá - Meu Canto
TTITLE7=Gaúcho da Fronteira - Na Minha Terra tem Quem Queira
TTITLE8=Os Mirins - Bom de Dança
TTITLE9=Os Maragatos - Foi de Parti a Bombacha
TTITLE10=Os Minuanos - Entardecer
TTITLE11=Paulo Siqueira e Conjunto Velha Porteira - No Lombo do Tempo
TTITLE12=Bruno Neher e Os Xirus - Leiteiro Sabichão
TTITLE13=Os Milongueiros - Ala Fresca Tchê
EXTD=
EXTT0=
EXTT1=
EXTT2=
EXTT3=
EXTT4=
EXTT5=
EXTT6=
EXTT7=
EXTT8=
EXTT9=
EXTT10=
EXTT11=
EXTT12=
EXTT13=
PLAYORDER=
